<svg width="17" height="17" viewBox="0 0 17 17" fill="none" xmlns="http://www.w3.org/2000/svg">
<g clip-path="url(#clip0_150_109)">
<path d="M0.708252 3.54183H16.2916M6.90617 12.5731V7.26058M10.0937 12.5731V7.26058M10.0937 0.708496H6.90617C6.62438 0.708496 6.35412 0.820438 6.15487 1.0197C5.95561 1.21895 5.84367 1.4892 5.84367 1.771V3.54183H11.1562V1.771C11.1562 1.4892 11.0442 1.21895 10.845 1.0197C10.6457 0.820438 10.3755 0.708496 10.0937 0.708496ZM13.3591 15.3143C13.3394 15.5805 13.2195 15.8294 13.0237 16.0107C12.8279 16.1921 12.5706 16.2926 12.3037 16.2918H4.69617C4.42925 16.2926 4.17196 16.1921 3.97613 16.0107C3.78029 15.8294 3.66046 15.5805 3.64075 15.3143L2.65617 3.54183H14.3437L13.3591 15.3143Z" stroke="white" stroke-linecap="round" stroke-linejoin="round"/>
</g>
<defs>
<clipPath id="clip0_150_109">
<rect width="17" height="17" fill="white"/>
</clipPath>
</defs>
</svg>
