<svg width="64" height="90" viewBox="0 0 64 90" fill="none" xmlns="http://www.w3.org/2000/svg">
<g clip-path="url(#clip0_116_181)">
<path d="M31.961 89.7727L5.9155 82.5622L0.111252 17.6426H63.8887L58.0785 82.5523L31.961 89.7727Z" fill="#264DE4"/>
<path d="M53.1043 78.4189L58.0692 22.9504H32V84.2534L53.1043 78.4189Z" fill="#2965F1"/>
<path d="M13.4172 47.0283L14.1327 54.9905H32V47.0283H13.4172ZM11.9792 30.9128L12.705 38.875H32V30.9128H11.9792ZM32 67.7069L31.965 67.7161L23.073 65.3218L22.5045 58.9716H14.4895L15.608 71.4734L31.9632 76.0008L32 75.9909V67.7069Z" fill="#EBEBEB"/>
<path d="M15.121 0H24.791V4.0328H19.165V8.0656H24.7915V12.0981H15.121V0ZM26.7253 0H36.3955V3.50676H30.7693V4.20806H36.3955V12.2737H26.7255V8.59114H32.3518V7.88983H26.725L26.7253 0ZM38.3298 0H48V3.50676H42.3738V4.20806H48V12.2737H38.3298V8.59114H43.956V7.88983H38.33L38.3298 0Z" fill="white"/>
<path d="M50.5318 47.0283L51.973 30.9128H31.9725V38.875H43.223L42.4965 47.0283H31.9725V54.9905H41.8043L40.8773 65.3168L31.9723 67.7136V75.9971L48.3405 71.4734L48.4605 70.1282L50.337 49.1664L50.5318 47.0283Z" fill="white"/>
</g>
<defs>
<clipPath id="clip0_116_181">
<rect width="64" height="90" fill="white"/>
</clipPath>
</defs>
</svg>
