<svg width="17" height="17" viewBox="0 0 17 17" fill="none" xmlns="http://www.w3.org/2000/svg">
<path d="M11.6557 0.944336H3.63863C2.97442 0.945132 2.33764 1.20933 1.86797 1.67899C1.39831 2.14864 1.1341 2.7854 1.1333 3.44959V11.4664C1.1333 12.8473 2.25769 13.9717 3.63863 13.9717H11.6557C13.0366 13.9717 14.161 12.8473 14.161 11.4664V3.44959C14.161 2.0687 13.0366 0.944336 11.6557 0.944336ZM13.1589 11.4664C13.1589 12.2952 12.4844 12.9696 11.6557 12.9696H3.63863C2.80987 12.9696 2.13543 12.2952 2.13543 11.4664V3.44959C2.13543 2.62086 2.80987 1.94644 3.63863 1.94644H11.6557C12.4844 1.94644 13.1589 2.62086 13.1589 3.44959V11.4664ZM11.1546 7.45801C11.1546 7.5909 11.1018 7.71834 11.0078 7.81231C10.9139 7.90627 10.7864 7.95906 10.6535 7.95906H4.64076C4.50787 7.95906 4.38042 7.90627 4.28645 7.81231C4.19248 7.71834 4.13969 7.5909 4.13969 7.45801C4.13969 7.32512 4.19248 7.19768 4.28645 7.10371C4.38042 7.00975 4.50787 6.95696 4.64076 6.95696H10.6535C10.7864 6.95696 10.9139 7.00975 11.0078 7.10371C11.1018 7.19768 11.1546 7.32512 11.1546 7.45801Z" fill="white"/>
<path d="M14.9523 4.72211C15.5466 5.17029 15.9266 5.87185 15.9266 6.67077V11.5422C15.9266 13.9585 13.9585 15.9267 11.5423 15.9267H6.67084C5.87193 15.9267 5.17036 15.5467 4.72219 14.9524H11.5423C13.4226 14.9523 14.9523 13.4226 14.9523 11.5422V4.72211Z" fill="white"/>
</svg>
