<svg width="17" height="17" viewBox="0 0 17 17" fill="none" xmlns="http://www.w3.org/2000/svg">
<path d="M5.3125 8.5C5.3125 8.78179 5.20056 9.05204 5.0013 9.2513C4.80204 9.45056 4.53179 9.5625 4.25 9.5625C3.96821 9.5625 3.69796 9.45056 3.4987 9.2513C3.29944 9.05204 3.1875 8.78179 3.1875 8.5C3.1875 8.21821 3.29944 7.94796 3.4987 7.7487C3.69796 7.54944 3.96821 7.4375 4.25 7.4375C4.53179 7.4375 4.80204 7.54944 5.0013 7.7487C5.20056 7.94796 5.3125 8.21821 5.3125 8.5ZM9.5625 8.5C9.5625 8.78179 9.45056 9.05204 9.2513 9.2513C9.05204 9.45056 8.78179 9.5625 8.5 9.5625C8.21821 9.5625 7.94796 9.45056 7.7487 9.2513C7.54944 9.05204 7.4375 8.78179 7.4375 8.5C7.4375 8.21821 7.54944 7.94796 7.7487 7.7487C7.94796 7.54944 8.21821 7.4375 8.5 7.4375C8.78179 7.4375 9.05204 7.54944 9.2513 7.7487C9.45056 7.94796 9.5625 8.21821 9.5625 8.5ZM12.75 9.5625C13.0318 9.5625 13.302 9.45056 13.5013 9.2513C13.7006 9.05204 13.8125 8.78179 13.8125 8.5C13.8125 8.21821 13.7006 7.94796 13.5013 7.7487C13.302 7.54944 13.0318 7.4375 12.75 7.4375C12.4682 7.4375 12.198 7.54944 11.9987 7.7487C11.7994 7.94796 11.6875 8.21821 11.6875 8.5C11.6875 8.78179 11.7994 9.05204 11.9987 9.2513C12.198 9.45056 12.4682 9.5625 12.75 9.5625Z" fill="white"/>
</svg>
