<svg width="17" height="17" viewBox="0 0 17 17" fill="none" xmlns="http://www.w3.org/2000/svg">
<path d="M3.98438 3.1875C3.77303 3.1875 3.57034 3.27146 3.4209 3.4209C3.27146 3.57034 3.1875 3.77303 3.1875 3.98438V5.84375C3.1875 5.98465 3.13153 6.11977 3.0319 6.2194C2.93227 6.31903 2.79715 6.375 2.65625 6.375C2.51535 6.375 2.38023 6.31903 2.2806 6.2194C2.18097 6.11977 2.125 5.98465 2.125 5.84375V3.98438C2.125 2.958 2.958 2.125 3.98438 2.125H5.84375C5.98465 2.125 6.11977 2.18097 6.2194 2.2806C6.31903 2.38023 6.375 2.51535 6.375 2.65625C6.375 2.79715 6.31903 2.93227 6.2194 3.0319C6.11977 3.13153 5.98465 3.1875 5.84375 3.1875H3.98438ZM10.625 2.65625C10.625 2.51535 10.681 2.38023 10.7806 2.2806C10.8802 2.18097 11.0154 2.125 11.1562 2.125H13.0156C14.042 2.125 14.875 2.958 14.875 3.98438V5.84375C14.875 5.98465 14.819 6.11977 14.7194 6.2194C14.6198 6.31903 14.4846 6.375 14.3438 6.375C14.2029 6.375 14.0677 6.31903 13.9681 6.2194C13.8685 6.11977 13.8125 5.98465 13.8125 5.84375V3.98438C13.8125 3.77303 13.7285 3.57034 13.5791 3.4209C13.4297 3.27146 13.227 3.1875 13.0156 3.1875H11.1562C11.0154 3.1875 10.8802 3.13153 10.7806 3.0319C10.681 2.93227 10.625 2.79715 10.625 2.65625ZM2.65625 10.625C2.79715 10.625 2.93227 10.681 3.0319 10.7806C3.13153 10.8802 3.1875 11.0154 3.1875 11.1562V13.0156C3.1875 13.4555 3.5445 13.8125 3.98438 13.8125H5.84375C5.98465 13.8125 6.11977 13.8685 6.2194 13.9681C6.31903 14.0677 6.375 14.2029 6.375 14.3438C6.375 14.4846 6.31903 14.6198 6.2194 14.7194C6.11977 14.819 5.98465 14.875 5.84375 14.875H3.98438C3.49124 14.875 3.0183 14.6791 2.6696 14.3304C2.3209 13.9817 2.125 13.5088 2.125 13.0156V11.1562C2.125 11.0154 2.18097 10.8802 2.2806 10.7806C2.38023 10.681 2.51535 10.625 2.65625 10.625ZM14.3438 10.625C14.4846 10.625 14.6198 10.681 14.7194 10.7806C14.819 10.8802 14.875 11.0154 14.875 11.1562V13.0156C14.875 13.5088 14.6791 13.9817 14.3304 14.3304C13.9817 14.6791 13.5088 14.875 13.0156 14.875H11.1562C11.0154 14.875 10.8802 14.819 10.7806 14.7194C10.681 14.6198 10.625 14.4846 10.625 14.3438C10.625 14.2029 10.681 14.0677 10.7806 13.9681C10.8802 13.8685 11.0154 13.8125 11.1562 13.8125H13.0156C13.227 13.8125 13.4297 13.7285 13.5791 13.5791C13.7285 13.4297 13.8125 13.227 13.8125 13.0156V11.1562C13.8125 11.0154 13.8685 10.8802 13.9681 10.7806C14.0677 10.681 14.2029 10.625 14.3438 10.625Z" fill="white"/>
</svg>
