<svg width="90" height="90" viewBox="0 0 90 90" fill="none" xmlns="http://www.w3.org/2000/svg">
<g clip-path="url(#clip0_116_473)">
<path d="M31.9922 90.7031C40.3594 90.7031 47.1094 83.9531 47.1094 75.5859V60.4688H31.9922C23.625 60.4688 16.875 67.2188 16.875 75.5859C16.875 83.9531 23.625 90.7031 31.9922 90.7031Z" fill="#0ACF83"/>
<path d="M16.875 45.3516C16.875 36.9844 23.625 30.2344 31.9922 30.2344H47.1094V60.4688H31.9922C23.625 60.4688 16.875 53.7187 16.875 45.3516Z" fill="#A259FF"/>
<path d="M16.875 15.1172C16.875 6.75 23.625 0 31.9922 0H47.1094V30.2344H31.9922C23.625 30.2344 16.875 23.4844 16.875 15.1172Z" fill="#F24E1E"/>
<path d="M47.1094 0H62.2266C70.5937 0 77.3438 6.75 77.3438 15.1172C77.3438 23.4844 70.5937 30.2344 62.2266 30.2344H47.1094V0Z" fill="#FF7262"/>
<path d="M77.3438 45.3516C77.3438 53.7187 70.5937 60.4688 62.2266 60.4688C53.8594 60.4688 47.1094 53.7187 47.1094 45.3516C47.1094 36.9844 53.8594 30.2344 62.2266 30.2344C70.5937 30.2344 77.3438 36.9844 77.3438 45.3516Z" fill="#1ABCFE"/>
</g>
<defs>
<clipPath id="clip0_116_473">
<rect width="90" height="90" fill="white"/>
</clipPath>
</defs>
</svg>
