<svg width="90" height="90" viewBox="0 0 90 90" fill="none" xmlns="http://www.w3.org/2000/svg">
<g clip-path="url(#clip0_116_492)">
<path d="M30.8436 87.6899C40.0272 90.7683 49.964 90.7699 59.1486 87.6944C58.8138 87.8022 58.4581 87.8288 58.111 87.772C57.7638 87.7153 57.4352 87.5768 57.1521 87.368C56.869 87.1592 56.6396 86.8861 56.4829 86.5712C56.3262 86.2564 56.2465 85.9087 56.2506 85.557C56.2506 84.036 56.3091 79.1986 56.3091 73.1822C56.4291 71.658 56.22 70.1258 55.696 68.6894C55.1719 67.2531 54.3451 65.9462 53.2716 64.8574C63.2841 63.7324 73.8006 59.9075 73.8006 42.6369C73.8733 38.1636 72.2217 33.8339 69.1881 30.5456C70.561 26.6582 70.4 22.3937 68.7381 18.6209C68.7381 18.6209 64.9671 17.3834 56.3631 23.2333C48.9997 21.2087 41.2265 21.2087 33.8631 23.2333C25.2546 17.4374 21.4881 18.6163 21.4881 18.6163C19.8262 22.3892 19.6652 26.6537 21.0381 30.5411C18.0164 33.8368 16.3667 38.1615 16.4256 42.6324C16.4256 59.8445 26.8881 63.7279 36.9006 64.8529C35.2445 66.443 34.224 68.5817 34.0296 70.8693C32.9276 71.4873 31.7146 71.8821 30.46 72.0311C29.2053 72.1801 27.9336 72.0805 26.7175 71.7378C25.5014 71.3951 24.3647 70.8162 23.3724 70.034C22.3802 69.2518 21.5518 68.2818 20.9346 67.1794L20.9256 67.1569C20.2281 65.888 19.2347 64.8062 18.0299 64.0032C16.825 63.2003 15.4442 62.6999 14.0046 62.5445C10.2381 62.603 12.4881 64.6819 14.0631 65.5279C16.0926 67.2379 17.6766 69.4203 18.6756 71.8818C19.5756 74.4152 22.5006 79.2526 33.8046 77.1692C33.8046 80.9401 33.8631 84.4815 33.8631 85.5525C33.8631 86.718 33.0261 88.0319 30.8436 87.6899Z" fill="white"/>
<path d="M45 0C20.1465 0 0 20.1461 0 44.9991C0 64.9022 12.9375 81.7588 30.8475 87.6942C33.03 88.0317 33.8625 86.7222 33.8625 85.5568C33.8625 84.4858 33.8085 80.9444 33.8085 77.1734C22.5 79.2569 19.575 74.4195 18.675 71.886C17.6754 69.4255 16.0924 67.2449 14.0625 65.5322C12.4875 64.6862 10.2375 62.6072 14.004 62.5487C15.4436 62.7041 16.8244 63.2046 18.0293 64.0075C19.2341 64.8105 20.2275 65.8923 20.925 67.1611L20.9385 67.1881C21.5557 68.2906 22.3841 69.2606 23.3763 70.0428C24.3686 70.8249 25.5052 71.4039 26.7214 71.7466C27.9375 72.0893 29.2092 72.1889 30.4639 72.0399C31.7185 71.8909 32.9315 71.4961 34.0335 70.8781C34.227 68.5831 35.2485 66.4502 36.9 64.8572C26.8875 63.7322 16.425 59.8488 16.425 42.6366C16.3661 38.1658 18.0158 33.8411 21.0375 30.5454C19.6646 26.658 19.8256 22.3935 21.4875 18.6206C21.4875 18.6206 25.254 17.4371 33.8625 23.233C41.2259 21.2085 48.9991 21.2085 56.3625 23.233C64.9665 17.3831 68.7375 18.6206 68.7375 18.6206C70.4025 22.3915 70.5645 26.6575 69.1875 30.5454C72.2211 33.8337 73.8727 38.1634 73.8 42.6366C73.8 59.9073 63.279 63.7322 53.271 64.8572C55.44 67.0621 56.5515 70.0951 56.3085 73.182C56.3085 79.1984 56.25 84.0358 56.25 85.5568C56.2454 85.9083 56.3245 86.256 56.4807 86.571C56.6369 86.886 56.8657 87.1594 57.1483 87.3686C57.4309 87.5778 57.7592 87.7168 58.1061 87.7742C58.453 87.8316 58.8086 87.8057 59.1435 87.6987C77.058 81.7633 90 64.9067 90 44.9991C90 20.1461 69.8535 0 45 0Z" fill="black"/>
</g>
<defs>
<clipPath id="clip0_116_492">
<rect width="90" height="90" fill="white"/>
</clipPath>
</defs>
</svg>
