<svg width="90" height="90" viewBox="0 0 90 90" fill="none" xmlns="http://www.w3.org/2000/svg">
<g clip-path="url(#clip0_116_445)">
<path d="M68.9062 0H21.0938C9.44399 0 0 9.44399 0 21.0938V68.9062C0 80.556 9.44399 90 21.0938 90H68.9062C80.556 90 90 80.556 90 68.9062V21.0938C90 9.44399 80.556 0 68.9062 0Z" fill="#F03C2E"/>
<mask id="mask0_116_445" style="mask-type:luminance" maskUnits="userSpaceOnUse" x="9" y="9" width="72" height="72">
<path d="M9.84375 9.84375H80.1562V80.1562H9.84375V9.84375Z" fill="white"/>
</mask>
<g mask="url(#mask0_116_445)">
<path d="M78.8291 41.8691L48.131 11.171C47.4981 10.5373 46.6913 10.1058 45.813 9.93101C44.9346 9.75621 44.0241 9.84602 43.1968 10.1891C42.6477 10.4169 42.1488 10.7506 41.7284 11.171L35.3563 17.543L43.4422 25.629C45.3231 24.9698 47.4764 25.4202 48.9748 26.9189C49.6882 27.6334 50.1862 28.5343 50.4119 29.5184C50.6376 30.5026 50.582 31.5304 50.2513 32.4844L58.0451 40.2782C59.9305 39.6278 62.1056 40.0473 63.6107 41.5569C64.3646 42.3104 64.878 43.2707 65.0859 44.3163C65.2937 45.3618 65.1866 46.4455 64.7782 47.4301C64.2307 48.7502 63.1815 49.7989 61.8611 50.3456C60.5406 50.8923 59.0572 50.8923 57.7368 50.3456C57.0829 50.0745 56.4887 49.6776 55.9884 49.177C54.4064 47.595 54.0155 45.2659 54.8153 43.3168L47.5467 36.0482V55.1757C48.0744 55.4367 48.5565 55.7809 48.9748 56.1952C49.9853 57.2057 50.5529 58.5762 50.5529 60.0053C50.5529 61.4343 49.9853 62.8049 48.9748 63.8153C47.9643 64.8258 46.5938 65.3935 45.1647 65.3935C43.7357 65.3935 42.3651 64.8258 41.3546 63.8153C40.6005 63.0621 40.0869 62.1019 39.8787 61.0566C39.6706 60.0112 39.7773 58.9275 40.1853 57.9428C40.4563 57.2891 40.8537 56.6952 41.3546 56.1952C41.8753 55.6767 42.4533 55.2833 43.1191 55.0196V35.7143C42.4584 35.4443 41.8584 35.0447 41.3546 34.539C40.5981 33.7832 40.0838 32.8193 39.8771 31.7701C39.6705 30.721 39.781 29.634 40.1945 28.6478L32.2186 20.6769L11.1688 41.7045C10.5351 42.3378 10.1035 43.1448 9.92858 44.0234C9.75366 44.902 9.84331 45.8128 10.1862 46.6405C10.4142 47.1899 10.7481 47.6891 11.1688 48.1096L41.869 78.8053C42.2894 79.2257 42.7883 79.5593 43.3375 79.7872C44.4471 80.246 45.6935 80.246 46.8032 79.7872C47.3523 79.5593 47.8512 79.2257 48.2716 78.8053L78.8291 48.2963C79.2499 47.8759 79.5837 47.3767 79.8114 46.8272C80.0392 46.2777 80.1565 45.6888 80.1566 45.0939C80.1566 44.4991 80.0393 43.91 79.8115 43.3605C79.5837 42.811 79.2499 42.3117 78.8291 41.8912" fill="white"/>
</g>
</g>
<defs>
<clipPath id="clip0_116_445">
<rect width="90" height="90" fill="white"/>
</clipPath>
</defs>
</svg>
