<svg width="64" height="90" viewBox="0 0 64 90" fill="none" xmlns="http://www.w3.org/2000/svg">
<g clip-path="url(#clip0_116_175)">
<path d="M63.8888 17.6426L58.0785 82.5523L31.961 89.7727L5.9155 82.5622L0.111252 17.6426H63.8888Z" fill="#E44D26"/>
<path d="M32 84.2534L53.1043 78.4189L58.0692 22.9504H32V84.2534Z" fill="#F16529"/>
<path d="M20.705 38.875H32V30.9128H11.9792L12.1702 33.0489L14.1327 54.9905H32V47.0283H21.4347L20.705 38.875ZM22.5045 58.9717H14.4895L15.608 71.4734L31.9632 76.0009L32 75.9909V67.7069L31.965 67.7161L23.073 65.3218L22.5045 58.9717Z" fill="#EBEBEB"/>
<path d="M6.045 0H10.1025V3.99764H13.8142V0H17.872V12.1059H13.8145V8.05213H10.1027V12.1059H6.04525L6.045 0ZM23.2075 4.0146H19.636V0H30.8395V4.0146H27.2657V12.1059H23.2082V4.0146H23.2075ZM32.6175 0H36.8482L39.4507 4.25368L42.0507 0H46.2832V12.1059H42.2422V6.10554L39.4507 10.4098H39.3807L36.5875 6.10554V12.1059H32.6175V0ZM48.3025 0H52.3612V8.10449H58.0672V12.1059H48.3022L48.3025 0Z" fill="white"/>
<path d="M31.9725 54.9905H41.8042L40.8772 65.3168L31.9722 67.7136V75.9971L48.3405 71.4734L48.4605 70.1282L50.337 49.1664L50.5317 47.0283H31.9725V54.9905ZM31.9725 38.8555V38.875H51.2582L51.4182 37.0854L51.7822 33.0489L51.973 30.9128H31.9725V38.8555Z" fill="white"/>
</g>
<defs>
<clipPath id="clip0_116_175">
<rect width="64" height="90" fill="white"/>
</clipPath>
</defs>
</svg>
