<svg width="12" height="12" viewBox="0 0 12 12" fill="none" xmlns="http://www.w3.org/2000/svg">
<path fill-rule="evenodd" clip-rule="evenodd" d="M9.23276 5.3517C9.40387 5.52072 9.5 5.74993 9.5 5.98893C9.5 6.22792 9.40387 6.45713 9.23276 6.62615L4.06929 11.7248C3.98509 11.8109 3.88438 11.8796 3.77302 11.9268C3.66166 11.9741 3.54188 11.9989 3.42069 12C3.29949 12.001 3.1793 11.9782 3.06713 11.9329C2.95495 11.8876 2.85304 11.8206 2.76734 11.736C2.68164 11.6514 2.61386 11.5508 2.56797 11.44C2.52208 11.3292 2.49898 11.2105 2.50003 11.0909C2.50109 10.9712 2.52627 10.8529 2.5741 10.743C2.62194 10.633 2.69148 10.5335 2.77865 10.4504L7.2968 5.98893L2.77865 1.52746C2.61239 1.35747 2.52039 1.12979 2.52247 0.893475C2.52455 0.657155 2.62054 0.431096 2.78977 0.263987C2.959 0.0968769 3.18794 0.00208763 3.42726 3.40718e-05C3.66658 -0.00201948 3.89714 0.0888272 4.06929 0.253008L9.23276 5.3517Z" fill="#C8C8C8"/>
</svg>
