<svg width="90" height="90" viewBox="0 0 90 90" fill="none" xmlns="http://www.w3.org/2000/svg">
<g clip-path="url(#clip0_116_482)">
<path d="M15.9609 1.125H74.1094C82.8984 1.125 90.0703 8.22656 90.0703 17.0859V72.9844C90.0703 81.7734 82.9688 88.9453 74.1094 88.9453H15.9609C7.10156 88.875 0 81.7734 0 72.9141V17.0859C0 8.22656 7.10156 1.125 15.9609 1.125Z" fill="#330000"/>
<path d="M43.5234 53.6484H29.5313L26.7188 62.4375C26.6484 62.7891 26.3672 63 26.0156 62.9297H18.9844C18.5625 62.9297 18.4922 62.7188 18.5625 62.2266L30.6562 27.4922C30.7969 27.1406 30.8672 26.7187 31.0078 26.2266C31.1484 25.4531 31.2188 24.6094 31.2188 23.7656C31.1484 23.5547 31.3594 23.4141 31.5 23.3438H41.2031C41.4844 23.3438 41.625 23.4844 41.6953 23.625L55.4063 62.2266C55.5469 62.6484 55.4063 62.8594 55.0547 62.8594H47.1797C46.8984 62.9297 46.6875 62.7188 46.5469 62.4375L43.5234 53.6484ZM31.7109 45.9844H41.2031C40.9922 45.2109 40.7109 44.2266 40.3594 43.3125C40.0078 42.3281 39.6562 41.2031 39.375 40.0781C39.0234 38.8828 38.6719 37.7578 38.3203 36.6328C37.9687 35.4375 37.6172 34.3828 37.3359 33.3281C37.0547 32.2734 36.7734 31.2891 36.4922 30.375H36.4219C36.0703 31.9922 35.6484 33.6094 35.1562 35.2266C34.5937 37.0547 34.0312 38.8828 33.3984 40.7813C32.8359 42.6797 32.2734 44.4375 31.7109 45.9844ZM63.7734 30.0234C62.5078 30.0938 61.3125 29.6016 60.4688 28.6875C59.625 27.7734 59.1328 26.5078 59.2031 25.2422C59.1328 23.9766 59.625 22.7813 60.5391 21.9375C61.4531 21.0938 62.6484 20.6016 63.8438 20.6016C65.3203 20.6016 66.4453 21.0234 67.2891 21.9375C68.1328 22.8516 68.5547 24.0469 68.5547 25.2422C68.625 26.5078 68.1328 27.7734 67.2187 28.6875C66.3047 29.6016 65.0391 30.0938 63.7734 30.0234ZM59.5547 62.5781V33.6797C59.5547 33.3281 59.6953 33.1875 60.0469 33.1875H67.5C67.8516 33.1875 67.9922 33.3984 67.9922 33.6797V62.5781C67.9922 63 67.8516 63.2109 67.5 63.2109H60.1172C59.7656 63.1406 59.5547 62.9297 59.5547 62.5781Z" fill="#FF9A00"/>
</g>
<defs>
<clipPath id="clip0_116_482">
<rect width="90" height="90" rx="10" fill="white"/>
</clipPath>
</defs>
</svg>
