<svg width="90" height="90" viewBox="0 0 90 90" fill="none" xmlns="http://www.w3.org/2000/svg">
<path d="M6.76758 22.6272C-0.98719 33.7724 -0.0217994 48.2744 5.90203 60.1178C6.04265 60.4019 6.19031 60.681 6.33586 60.9601L6.61289 61.4938L6.78586 61.8011L7.09453 62.3537C7.27875 62.6776 7.46719 63.0008 7.65984 63.3233L7.98258 63.8549C8.19633 64.1994 8.415 64.5416 8.63859 64.8815L8.91844 65.3132C9.22711 65.7737 9.54281 66.2336 9.86906 66.685L9.89648 66.7201L10.0568 66.9367C10.3395 67.3258 10.6282 67.7099 10.923 68.0891L11.2493 68.504C11.5118 68.8335 11.7785 69.1614 12.0495 69.4876L12.3553 69.8533C12.7202 70.2839 13.092 70.7086 13.4705 71.1273L13.4937 71.1505L13.5366 71.1983C13.9085 71.6021 14.2864 72.0003 14.67 72.393L15.0335 72.7593C15.3312 73.0584 15.6328 73.3541 15.9384 73.6466L16.309 73.9982C16.7163 74.3826 17.1298 74.7592 17.5493 75.1281L17.569 75.1436L17.7848 75.3278C18.1561 75.6494 18.5318 75.9665 18.9119 76.2791L19.3788 76.6511C19.6891 76.9 20.0023 77.1447 20.3182 77.3851L20.8202 77.7669C21.169 78.0238 21.5203 78.2758 21.8742 78.5228L22.2581 78.7949L22.3636 78.8701C22.6997 79.1015 23.0435 79.3244 23.3873 79.5473L23.8303 79.8426C24.3577 80.1758 24.892 80.5056 25.4327 80.8241L25.8757 81.0737C26.2727 81.3034 26.6735 81.5282 27.078 81.748C27.2974 81.8662 27.5224 81.978 27.7432 82.0912C28.0294 82.2409 28.3134 82.3928 28.6045 82.5383L28.8035 82.6347L29.1558 82.8048C29.6062 83.0205 30.0609 83.2307 30.5198 83.4355L30.8081 83.5649C31.3344 83.7951 31.8649 84.0157 32.3993 84.2266L32.7867 84.3791C33.2817 84.5697 33.7837 84.7581 34.2879 84.9353L34.4763 85.0007C35.0297 85.1941 35.588 85.3733 36.1505 85.5484L36.5548 85.6694C37.1271 85.8416 37.6931 86.0476 38.283 86.1566C75.787 92.9959 86.6812 63.6194 86.6812 63.6194C77.5315 75.5394 61.2907 78.6838 45.9028 75.183C45.3199 75.0515 44.7546 74.8694 44.1858 74.7013L43.7576 74.5712C43.2033 74.4013 42.652 74.222 42.1038 74.0333L41.8767 73.9511C41.3879 73.7783 40.9017 73.5981 40.4184 73.4104L40.0092 73.2494C39.4795 73.0408 38.9548 72.8226 38.4349 72.5948L38.1206 72.4555C37.6756 72.2545 37.2328 72.0485 36.7924 71.8375L36.4085 71.6533C36.0633 71.4852 35.7216 71.3066 35.3812 71.1308C35.1534 71.0106 34.9214 70.8974 34.6957 70.7723C34.2814 70.5491 33.871 70.3189 33.4645 70.0818L33.049 69.8498C32.5092 69.5312 31.9748 69.2037 31.4459 68.8675L31.0134 68.5792C30.6289 68.3326 30.2485 68.0797 29.8723 67.8205L29.5052 67.5625C29.1429 67.3064 28.7834 67.0465 28.4266 66.7827L27.9492 66.4213C27.6214 66.1721 27.297 65.9185 26.9761 65.6605L26.5423 65.3125C26.1336 64.9774 25.7295 64.6369 25.3301 64.2908L25.1972 64.1791C24.7669 63.7992 24.3422 63.4132 23.9231 63.021L23.5638 62.6758C23.2537 62.3805 22.9486 62.083 22.6484 61.7779L22.2898 61.42C21.9088 61.0301 21.5342 60.6339 21.1662 60.2317L21.1106 60.1726C20.7228 59.7475 20.3428 59.3152 19.9709 58.8761L19.6727 58.5217C19.3948 58.1873 19.1213 57.8493 18.8522 57.5078L18.552 57.1337C18.2302 56.7178 17.9145 56.2973 17.6048 55.8723C9.06187 44.2187 5.99203 28.1467 12.8201 14.9476M30.8405 13.2362C25.2316 21.3067 25.5368 32.1109 29.9116 40.6462C30.6446 42.0805 31.4733 43.4639 32.3923 44.7869C33.2325 45.9913 34.1641 47.4243 35.2793 48.3918C35.687 48.8385 36.1067 49.2741 36.5379 49.6982L36.8698 50.0251C37.2886 50.4333 37.7172 50.8314 38.1551 51.2191L38.2071 51.264L38.2198 51.2767C38.7096 51.7034 39.2102 52.1177 39.7209 52.5191L40.062 52.7849C40.5754 53.1805 41.099 53.5629 41.632 53.9317L41.6777 53.9662C41.914 54.1293 42.1544 54.2812 42.3942 54.4387L42.7338 54.663C43.1163 54.909 43.5042 55.1469 43.8975 55.3766L44.0627 55.4723C44.403 55.6682 44.7459 55.8599 45.0914 56.0474L45.4577 56.238C45.6961 56.3624 45.9345 56.4897 46.177 56.6106L46.286 56.6598C46.7803 56.9031 47.2788 57.138 47.7879 57.3594L48.1198 57.4959C48.5269 57.6688 48.9382 57.8376 49.3502 57.9951L49.8776 58.1884C50.2523 58.3276 50.6285 58.4542 51.0075 58.5815L51.5187 58.7453C52.058 58.9126 52.5909 59.1243 53.1527 59.2178C82.1095 64.0152 88.7948 41.7198 88.7948 41.7198C82.7691 50.3985 71.0986 54.5399 58.6455 51.3069C58.095 51.1623 57.548 51.0043 57.0052 50.833L56.5123 50.6734C56.1275 50.549 55.7452 50.4173 55.3655 50.2783L54.848 50.0856C54.4336 49.9266 54.022 49.7607 53.6133 49.5878L53.2807 49.4472C52.7716 49.2255 52.268 48.9913 51.7704 48.7448C51.5152 48.6203 51.2641 48.4888 51.0124 48.3594L50.5751 48.1344C50.2525 47.9595 49.933 47.7791 49.6167 47.593L49.3875 47.463C48.9958 47.2345 48.6088 46.9982 48.2266 46.7542L47.8765 46.5208C47.6242 46.3577 47.3737 46.192 47.1248 46.0237C46.5941 45.6546 46.0723 45.2729 45.5597 44.879L45.2074 44.6012C39.7568 40.2981 35.4354 34.4158 33.3816 27.7466C31.2286 20.8307 31.6927 13.0668 35.4227 6.76538M51.087 6.22046C47.7809 11.0861 47.456 17.1287 49.7503 22.502C52.1698 28.2065 57.1268 32.6805 62.9128 34.8032C63.1512 34.8911 63.3902 34.9698 63.6314 35.0521L63.9485 35.1526C64.2895 35.2595 64.6277 35.384 64.98 35.4508C80.9691 38.5403 85.3059 27.246 86.4598 25.5831C82.6615 31.0527 76.2771 32.3655 68.4436 30.4642C67.8248 30.3144 67.1449 30.0908 66.5487 29.8792C65.7826 29.6074 65.0313 29.2954 64.298 28.9448C62.9058 28.2756 61.5839 27.4691 60.352 26.5373C53.3426 21.2181 48.9881 11.0727 53.562 2.8103" fill="#0868AC"/>
</svg>
