<svg width="90" height="90" viewBox="0 0 90 90" fill="none" xmlns="http://www.w3.org/2000/svg">
<path fill-rule="evenodd" clip-rule="evenodd" d="M61.9017 30.1023C63.0302 33.3669 63.843 36.6997 64.1102 40.1542C64.4421 44.4397 64.2902 48.695 63.3867 52.9103C63.3621 53.0263 63.3101 53.1353 63.2714 53.2478C62.988 53.2485 62.6991 53.2133 62.422 53.2562C60.0813 53.6239 57.7427 54.005 55.4041 54.384C52.9868 54.7757 50.5659 55.1518 48.1528 55.5702C47.2978 55.7178 46.2396 55.5414 45.8944 56.724C45.8845 56.7564 45.7861 56.762 45.7291 56.7803L45.8459 49.7132L45.727 32.661L46.8534 32.4676C48.6956 32.166 50.5378 31.8601 52.3814 31.5669C54.5815 31.2175 56.7837 30.8778 58.9851 30.5368C59.9562 30.3857 60.9286 30.2471 61.9017 30.1023Z" fill="#439934"/>
<path fill-rule="evenodd" clip-rule="evenodd" d="M43.4032 77.3817C42.2149 76.3601 40.9851 75.3834 39.8461 74.309C33.7169 68.5279 29.2338 61.7238 27.026 53.5204C26.4178 51.2627 26.0121 48.9684 25.882 46.6354C25.7906 45.0028 25.6584 43.3554 25.7737 41.7312C26.081 37.4112 26.7054 33.1326 27.9724 28.9715L28.042 28.8745C28.1651 29.0383 28.3423 29.1832 28.4048 29.3681C29.6414 33.0103 30.87 36.6551 32.0906 40.3024C35.9283 51.7633 39.761 63.2271 43.605 74.6852C43.6802 74.9088 43.875 75.0923 44.0149 75.2941L43.4032 77.3817Z" fill="#45A538"/>
<path fill-rule="evenodd" clip-rule="evenodd" d="M61.9017 30.1023C60.9286 30.2471 59.9555 30.3856 58.9845 30.5354C56.783 30.8764 54.5808 31.216 52.3807 31.5655C50.5371 31.8587 48.6949 32.1645 46.8527 32.4662L45.7263 32.6595L45.7179 31.9248C45.6806 31.3208 45.6166 30.7175 45.6096 30.1135C45.5611 26.2618 45.5309 22.4101 45.483 18.5583C45.4535 16.1473 45.4092 13.737 45.36 11.3267C45.3298 9.82905 45.2974 8.33069 45.2299 6.83515C45.1934 6.03147 45.064 5.23202 45.0113 4.42835C44.9817 3.9664 45.0225 3.50093 45.0316 3.03687C45.6061 4.14991 46.1679 5.2714 46.7585 6.37601C47.6916 8.12257 49.178 9.40929 50.516 10.8134C55.8056 16.3625 59.561 22.8144 61.9017 30.1023Z" fill="#46A037"/>
<path fill-rule="evenodd" clip-rule="evenodd" d="M45.7284 56.7793C45.7854 56.7611 45.8845 56.7554 45.8937 56.7231C46.2389 55.5404 47.2971 55.7169 48.1521 55.5693C50.5652 55.1516 52.9861 54.7747 55.4034 54.3831C57.742 54.0041 60.0806 53.623 62.4213 53.2553C62.6984 53.2117 62.9873 53.2476 63.2707 53.2468C62.8334 54.8078 62.4888 56.4025 61.9341 57.9205C61.3041 59.6425 60.5419 61.3229 59.7326 62.9704C58.5218 65.428 57.0222 67.7325 55.2656 69.835C53.9163 71.4578 52.4123 72.9576 50.9048 74.439C50.0716 75.2582 49.0894 75.9254 48.1753 76.6616L47.9384 76.4999L47.0848 75.7701L46.2016 73.8344C45.5984 71.5763 45.2693 69.2538 45.2215 66.917L45.2376 66.5226L45.3579 64.8168C45.398 64.2346 45.4514 63.6531 45.476 63.0695C45.5667 60.9728 45.6455 58.8761 45.7284 56.7793Z" fill="#409433"/>
<path fill-rule="evenodd" clip-rule="evenodd" d="M45.7284 56.7794C45.6455 58.8761 45.5667 60.9729 45.4774 63.0703C45.4528 63.6539 45.3994 64.2354 45.3593 64.8175L44.8214 65.0208C43.6268 61.5037 42.4315 58.024 41.2622 54.535C39.3286 48.7631 37.4182 42.982 35.4874 37.2086C33.928 32.5487 32.3576 27.8923 30.7765 23.2397C30.7027 23.0217 30.4903 22.8515 30.3427 22.6589L33.7852 16.3293C33.9033 16.5347 34.0594 16.7266 34.1339 16.9474C35.7283 21.6598 37.3145 26.375 38.8927 31.0929C40.943 37.2311 42.9806 43.3743 45.0295 49.5133C45.1111 49.7587 45.2461 49.9851 45.3748 50.2601L45.8459 49.7116L45.7284 56.7794Z" fill="#4FAA41"/>
<path fill-rule="evenodd" clip-rule="evenodd" d="M30.3434 22.6597C30.491 22.8523 30.7027 23.0225 30.7772 23.2404C32.3584 27.8931 33.9287 32.5495 35.4881 37.2094C37.4189 42.9828 39.3293 48.7639 41.2629 54.5358C42.4315 58.024 43.6268 61.5045 44.8221 65.0215L45.36 64.8183L45.2398 66.5241L45.1308 66.9172C44.9438 68.7847 44.7863 70.6564 44.5584 72.5197C44.4438 73.4534 44.2006 74.3703 44.0156 75.2949C43.8764 75.0931 43.6809 74.9096 43.6057 74.686C39.7617 63.2272 35.929 51.7641 32.0913 40.3032C30.8704 36.6558 29.6418 33.0111 28.4056 29.3689C28.343 29.184 28.1665 29.0391 28.0427 28.8753L30.3434 22.6597Z" fill="#4AA73C"/>
<path fill-rule="evenodd" clip-rule="evenodd" d="M45.8452 49.7124L45.3741 50.2608C45.2454 49.9859 45.1104 49.7588 45.0288 49.5141C42.9806 43.3751 40.9423 37.2319 38.892 31.0936C37.3138 26.3758 35.7276 21.6606 34.1332 16.9482C34.0594 16.7274 33.9033 16.5347 33.7845 16.3301L38.0419 10.7297C38.1762 10.909 38.3674 11.0686 38.437 11.2704C39.6183 14.7308 40.7909 18.1943 41.9548 21.6612C43.0425 24.8984 44.1141 28.1405 45.2145 31.3735C45.2883 31.59 45.5449 31.7433 45.7165 31.9261L45.7249 32.6609C45.7657 38.344 45.8058 44.0279 45.8452 49.7124Z" fill="#57AE47"/>
<path fill-rule="evenodd" clip-rule="evenodd" d="M45.7179 31.9248C45.5463 31.742 45.2897 31.5887 45.2159 31.3721C44.1155 28.1392 43.0439 24.8971 41.9562 21.6599C40.7923 18.1935 39.6197 14.7299 38.4384 11.2691C38.3688 11.0673 38.1776 10.9077 38.0433 10.7284C39.4277 9.37276 40.7693 7.96862 42.2093 6.67558C43.4897 5.52667 44.5191 4.29479 44.5662 2.47933C44.5683 2.40409 44.6076 2.32886 44.6681 2.11792L45.033 3.0362C45.0239 3.50097 44.9824 3.96573 45.0126 4.42769C45.0654 5.23136 45.1948 6.03081 45.2313 6.83448C45.2988 8.33003 45.3312 9.82839 45.3614 11.326C45.4099 13.7364 45.4542 16.1467 45.4844 18.5577C45.5316 22.4094 45.5625 26.2611 45.611 30.1128C45.6166 30.7182 45.6799 31.3208 45.7179 31.9248Z" fill="#60B24F"/>
<path fill-rule="evenodd" clip-rule="evenodd" d="M44.0142 75.2942C44.1991 74.3696 44.4424 73.452 44.557 72.519C44.7855 70.6564 44.9423 68.784 45.1294 66.9165L45.1758 66.9094L45.2222 66.9172C45.27 69.2539 45.5991 71.5764 46.2023 73.8345C46.0786 73.9976 45.9035 74.1432 45.8381 74.3274C45.3269 75.7688 44.8453 77.2215 44.3313 78.6629C44.261 78.8597 44.0655 79.013 43.9277 79.186L43.4025 77.3818L44.0142 75.2942Z" fill="#A9AA88"/>
<path fill-rule="evenodd" clip-rule="evenodd" d="M43.9284 79.1867C44.0662 79.0137 44.2624 78.8604 44.332 78.6636C44.846 77.2222 45.3284 75.7702 45.8388 74.3281C45.9042 74.1439 46.0786 73.9983 46.203 73.8352L47.0855 75.7716C46.9111 76.0191 46.6706 76.242 46.5736 76.5176L44.8833 81.481C44.8137 81.68 44.576 81.8206 44.4171 81.9886L43.9284 79.1867Z" fill="#B6B598"/>
<path fill-rule="evenodd" clip-rule="evenodd" d="M44.4171 81.9878C44.5767 81.8204 44.8137 81.6791 44.8833 81.4801L46.5736 76.5168C46.6699 76.2418 46.9111 76.0183 47.0855 75.7708L47.9398 76.4999C47.527 76.9077 47.2978 77.3788 47.4356 77.9743L47.1762 78.8237C47.0581 78.9693 46.8872 79.0958 46.8288 79.2625C46.2389 80.9521 45.6757 82.6508 45.0816 84.3404C45.0063 84.5549 44.7975 84.7229 44.6498 84.9114C44.573 83.9368 44.4954 82.9623 44.4171 81.9878Z" fill="#C2C1A7"/>
<path fill-rule="evenodd" clip-rule="evenodd" d="M44.6505 84.9114C44.7975 84.7222 45.0063 84.5542 45.0823 84.3404C45.6764 82.6515 46.2396 80.9528 46.8295 79.2625C46.8879 79.0965 47.058 78.9693 47.1769 78.8237L46.819 82.7226C46.7234 82.8329 46.5848 82.9293 46.5391 83.0579C46.1348 84.1928 45.7537 85.3361 45.348 86.4709C45.2644 86.7051 45.1041 86.9118 44.9789 87.1304C44.8678 86.9849 44.6688 86.8443 44.6597 86.6924C44.6238 86.1011 44.6484 85.5055 44.6505 84.9114Z" fill="#CECDB7"/>
<path fill-rule="evenodd" clip-rule="evenodd" d="M44.9782 87.1305C45.1034 86.9112 45.2637 86.7045 45.3474 86.471C45.7538 85.3369 46.1341 84.1936 46.5384 83.058C46.5841 82.9294 46.7234 82.8338 46.8183 82.7227L46.8267 85.282L45.9703 87.4786L44.9782 87.1305Z" fill="#DBDAC7"/>
<path fill-rule="evenodd" clip-rule="evenodd" d="M45.9703 87.4793L46.8267 85.2827L47.0032 87.8815L45.9703 87.4793Z" fill="#EBE9DC"/>
<path fill-rule="evenodd" clip-rule="evenodd" d="M47.4356 77.9752C47.2978 77.3796 47.5263 76.9078 47.9398 76.5007L48.1767 76.6624L47.4356 77.9752Z" fill="#CECDB7"/>
<path fill-rule="evenodd" clip-rule="evenodd" d="M45.2222 66.9179L45.1758 66.9102L45.1294 66.9172L45.2384 66.5242L45.2222 66.9179Z" fill="#4FAA41"/>
</svg>
