<svg width="17" height="17" viewBox="0 0 17 17" fill="none" xmlns="http://www.w3.org/2000/svg">
<path d="M2.125 4.78125V6.375H5.93512C6.07575 6.37497 6.21063 6.31919 6.31019 6.21988L7.74881 4.78125L6.31019 3.34262C6.21063 3.24331 6.07575 3.18753 5.93512 3.1875H3.71875C3.29606 3.1875 2.89068 3.35541 2.5918 3.6543C2.29291 3.95318 2.125 4.35856 2.125 4.78125ZM1.0625 4.78125C1.0625 4.07677 1.34235 3.40114 1.8405 2.903C2.33864 2.40485 3.01427 2.125 3.71875 2.125H5.93512C6.35767 2.12537 6.76278 2.29353 7.06137 2.5925L8.71994 4.25H13.2812C13.9857 4.25 14.6614 4.52985 15.1595 5.028C15.6576 5.52614 15.9375 6.20177 15.9375 6.90625V7.71056C15.6098 7.43993 15.2535 7.20586 14.875 7.0125V6.90625C14.875 6.48356 14.7071 6.07818 14.4082 5.7793C14.1093 5.48041 13.7039 5.3125 13.2812 5.3125H8.71994L7.06244 6.97C6.91433 7.11829 6.73843 7.23591 6.54481 7.31613C6.35119 7.39635 6.14365 7.43759 5.93406 7.4375H2.125V12.2188C2.125 12.6414 2.29291 13.0468 2.5918 13.3457C2.89068 13.6446 3.29606 13.8125 3.71875 13.8125H6.59494C6.70048 14.1837 6.83967 14.5378 7.0125 14.875H3.71875C3.01427 14.875 2.33864 14.5951 1.8405 14.097C1.34235 13.5989 1.0625 12.9232 1.0625 12.2188V4.78125ZM17 12.2188C17 13.4868 16.4963 14.7029 15.5996 15.5996C14.7029 16.4963 13.4868 17 12.2188 17C10.9507 17 9.73455 16.4963 8.8379 15.5996C7.94124 14.7029 7.4375 13.4868 7.4375 12.2188C7.4375 10.9507 7.94124 9.73455 8.8379 8.8379C9.73455 7.94124 10.9507 7.4375 12.2188 7.4375C13.4868 7.4375 14.7029 7.94124 15.5996 8.8379C16.4963 9.73455 17 10.9507 17 12.2188ZM12.75 9.5625C12.75 9.4216 12.694 9.28648 12.5944 9.18685C12.4948 9.08722 12.3596 9.03125 12.2188 9.03125C12.0779 9.03125 11.9427 9.08722 11.8431 9.18685C11.7435 9.28648 11.6875 9.4216 11.6875 9.5625V11.6875H9.5625C9.4216 11.6875 9.28648 11.7435 9.18685 11.8431C9.08722 11.9427 9.03125 12.0779 9.03125 12.2188C9.03125 12.3596 9.08722 12.4948 9.18685 12.5944C9.28648 12.694 9.4216 12.75 9.5625 12.75H11.6875V14.875C11.6875 15.0159 11.7435 15.151 11.8431 15.2507C11.9427 15.3503 12.0779 15.4062 12.2188 15.4062C12.3596 15.4062 12.4948 15.3503 12.5944 15.2507C12.694 15.151 12.75 15.0159 12.75 14.875V12.75H14.875C15.0159 12.75 15.151 12.694 15.2507 12.5944C15.3503 12.4948 15.4062 12.3596 15.4062 12.2188C15.4062 12.0779 15.3503 11.9427 15.2507 11.8431C15.151 11.7435 15.0159 11.6875 14.875 11.6875H12.75V9.5625Z" fill="white"/>
</svg>
