<svg width="17" height="17" viewBox="0 0 17 17" fill="none" xmlns="http://www.w3.org/2000/svg">
<path d="M5.3125 14.875C5.03071 14.875 4.76046 14.7631 4.5612 14.5638C4.36194 14.3645 4.25 14.0943 4.25 13.8125V3.1875C4.25 2.90571 4.36194 2.63546 4.5612 2.4362C4.76046 2.23694 5.03071 2.125 5.3125 2.125H8.5V4.78125C8.5 5.20394 8.66791 5.60932 8.9668 5.9082C9.26568 6.20709 9.67106 6.375 10.0938 6.375H12.75V6.40156C13.1155 6.43556 13.4697 6.50215 13.8125 6.60131V5.75238C13.8125 5.3295 13.6446 4.92469 13.3461 4.62506L10.2499 1.52894C10.1019 1.38097 9.92611 1.26361 9.73268 1.18358C9.53925 1.10355 9.33196 1.06241 9.12263 1.0625H5.3125C4.74891 1.0625 4.20841 1.28638 3.8099 1.6849C3.41138 2.08341 3.1875 2.62392 3.1875 3.1875V13.8125C3.1875 14.3761 3.41138 14.9166 3.8099 15.3151C4.20841 15.7136 4.74891 15.9375 5.3125 15.9375H7.71481C7.44596 15.6091 7.21301 15.2529 7.01994 14.875H5.3125ZM9.5625 2.34494L12.5301 5.3125H10.0938C9.95285 5.3125 9.81773 5.25653 9.7181 5.1569C9.61847 5.05727 9.5625 4.92215 9.5625 4.78125V2.34494ZM12.2188 7.4375C10.9507 7.4375 9.73455 7.94124 8.8379 8.8379C7.94124 9.73455 7.4375 10.9507 7.4375 12.2188C7.4375 13.4868 7.94124 14.7029 8.8379 15.5996C9.73455 16.4963 10.9507 17 12.2188 17C13.4868 17 14.7029 16.4963 15.5996 15.5996C16.4963 14.7029 17 13.4868 17 12.2188C17 10.9507 16.4963 9.73455 15.5996 8.8379C14.7029 7.94124 13.4868 7.4375 12.2188 7.4375ZM14.875 12.75H12.75V14.875C12.75 15.0159 12.694 15.151 12.5944 15.2507C12.4948 15.3503 12.3596 15.4062 12.2188 15.4062C12.0779 15.4062 11.9427 15.3503 11.8431 15.2507C11.7435 15.151 11.6875 15.0159 11.6875 14.875V12.75H9.5625C9.4216 12.75 9.28648 12.694 9.18685 12.5944C9.08722 12.4948 9.03125 12.3596 9.03125 12.2188C9.03125 12.0779 9.08722 11.9427 9.18685 11.8431C9.28648 11.7435 9.4216 11.6875 9.5625 11.6875H11.6875V9.5625C11.6875 9.4216 11.7435 9.28648 11.8431 9.18685C11.9427 9.08722 12.0779 9.03125 12.2188 9.03125C12.3596 9.03125 12.4948 9.08722 12.5944 9.18685C12.694 9.28648 12.75 9.4216 12.75 9.5625V11.6875H14.875C15.0159 11.6875 15.151 11.7435 15.2507 11.8431C15.3503 11.9427 15.4062 12.0779 15.4062 12.2188C15.4062 12.3596 15.3503 12.4948 15.2507 12.5944C15.151 12.694 15.0159 12.75 14.875 12.75Z" fill="white"/>
</svg>
