<svg width="90" height="90" viewBox="0 0 90 90" fill="none" xmlns="http://www.w3.org/2000/svg">
<g clip-path="url(#clip0_116_194)">
<path d="M45 90C69.8528 90 90 69.8528 90 45C90 20.1472 69.8528 0 45 0C20.1472 0 0 20.1472 0 45C0 69.8528 20.1472 90 45 90Z" fill="black"/>
<path d="M74.7541 78.7598L34.5705 27H27V62.9852H33.0567V34.6915L69.9989 82.4224C71.6637 81.3088 73.2523 80.0852 74.7541 78.7598Z" fill="url(#paint0_linear_116_194)"/>
<path d="M57.5002 27H63.4999V63H57.5002V27Z" fill="url(#paint1_linear_116_194)"/>
</g>
<defs>
<linearGradient id="paint0_linear_116_194" x1="54.4999" y1="58.2499" x2="72.2499" y2="80.2499" gradientUnits="userSpaceOnUse">
<stop stop-color="white"/>
<stop offset="1" stop-color="white" stop-opacity="0"/>
</linearGradient>
<linearGradient id="paint1_linear_116_194" x1="60.4999" y1="27" x2="60.3994" y2="53.4374" gradientUnits="userSpaceOnUse">
<stop stop-color="white"/>
<stop offset="1" stop-color="white" stop-opacity="0"/>
</linearGradient>
<clipPath id="clip0_116_194">
<rect width="90" height="90" fill="white"/>
</clipPath>
</defs>
</svg>
