<svg width="29" height="17" viewBox="0 0 29 17" fill="none" xmlns="http://www.w3.org/2000/svg">
<path d="M8.5 1.59375C8.5 1.45285 8.44403 1.31773 8.3444 1.2181C8.24477 1.11847 8.10965 1.0625 7.96875 1.0625C7.82785 1.0625 7.69273 1.11847 7.5931 1.2181C7.49347 1.31773 7.4375 1.45285 7.4375 1.59375V7.4375H1.59375C1.45285 7.4375 1.31773 7.49347 1.2181 7.5931C1.11847 7.69273 1.0625 7.82785 1.0625 7.96875C1.0625 8.10965 1.11847 8.24477 1.2181 8.3444C1.31773 8.44403 1.45285 8.5 1.59375 8.5H7.4375V14.3438C7.4375 14.4846 7.49347 14.6198 7.5931 14.7194C7.69273 14.819 7.82785 14.875 7.96875 14.875C8.10965 14.875 8.24477 14.819 8.3444 14.7194C8.44403 14.6198 8.5 14.4846 8.5 14.3438V8.5H14.3438C14.4846 8.5 14.6198 8.44403 14.7194 8.3444C14.819 8.24477 14.875 8.10965 14.875 7.96875C14.875 7.82785 14.819 7.69273 14.7194 7.5931C14.6198 7.49347 14.4846 7.4375 14.3438 7.4375H8.5V1.59375Z" fill="white"/>
<path d="M19.3595 6.89033L22.7345 10.2653C22.8048 10.3356 22.9002 10.3751 22.9996 10.3751C23.099 10.3751 23.1944 10.3356 23.2647 10.2653L26.6397 6.89033C26.708 6.81961 26.7458 6.72488 26.745 6.62656C26.7441 6.52823 26.7047 6.43418 26.6351 6.36465C26.5656 6.29512 26.4716 6.25569 26.3732 6.25483C26.2749 6.25398 26.1802 6.29177 26.1095 6.36008L23 9.46958L19.8905 6.36008C19.8556 6.32522 19.8143 6.29755 19.7688 6.27866C19.7233 6.25977 19.6745 6.25003 19.6252 6.25C19.576 6.24997 19.5272 6.25964 19.4816 6.27846C19.4361 6.29728 19.3947 6.32489 19.3598 6.35971C19.325 6.39453 19.2973 6.43587 19.2784 6.48138C19.2595 6.52689 19.2498 6.57567 19.2498 6.62494C19.2497 6.67422 19.2594 6.72301 19.2782 6.76855C19.297 6.81409 19.3246 6.85547 19.3595 6.89033Z" fill="white"/>
</svg>
