<svg width="90" height="90" viewBox="0 0 90 90" fill="none" xmlns="http://www.w3.org/2000/svg">
<path d="M15.9377 1.125H74.0623C82.8752 1.125 90 8.24977 90 17.0627V72.9373C90 81.7502 82.8752 88.875 74.0623 88.875H15.9377C7.12477 88.875 0 81.7502 0 72.9373V17.0627C0 8.24977 7.12477 1.125 15.9377 1.125Z" fill="#001E36"/>
<path d="M32.2502 23.4373C31.1252 23.4373 30.0002 23.4373 28.838 23.4752C27.675 23.5125 26.5873 23.5125 25.5748 23.5505C24.5623 23.5877 23.625 23.5877 22.725 23.625C21.8623 23.6623 21.2625 23.6623 20.6248 23.6623C20.3625 23.6623 20.25 23.812 20.25 24.075V62.6625C20.25 63 20.3998 63.1505 20.7 63.1505H27.9752C28.2375 63.1125 28.4252 62.8875 28.3873 62.6252V50.5877C29.0995 50.5877 29.6248 50.5877 30.0002 50.625C30.375 50.6623 30.9748 50.6623 31.8748 50.6623C34.9502 50.6623 37.7627 50.3248 40.3123 49.3875C42.75 48.4875 44.8502 46.9125 46.35 44.8123C47.85 42.7123 48.6 40.0498 48.6 36.8248C48.6 35.1373 48.3005 33.525 47.738 31.95C47.1419 30.3454 46.2082 28.8875 45 27.675C43.5739 26.2896 41.8573 25.239 39.9748 24.5995C37.8745 23.812 35.325 23.4373 32.2502 23.4373ZM33.087 30.8236C34.4229 30.8489 35.7237 31.0823 36.9373 31.5745C38.025 31.9873 38.925 32.7375 39.5627 33.712C40.1608 34.7206 40.46 35.8784 40.4255 37.0505C40.4255 38.7 40.05 39.9755 39.2625 40.9127C38.437 41.85 37.3873 42.563 36.1877 42.9005C34.7998 43.3505 33.3373 43.5748 31.8748 43.5748H29.887C29.437 43.5748 28.9505 43.5375 28.4252 43.5002V30.9002C28.6875 30.8623 29.2127 30.825 29.963 30.863C30.6752 30.825 31.5373 30.825 32.5125 30.825C32.7047 30.8203 32.8962 30.8198 33.087 30.8236ZM64.5377 32.7382C61.875 32.7382 59.6623 33.1502 57.9002 34.0502C56.288 34.8005 54.9 36 53.9627 37.4998C53.138 38.8877 52.6873 40.4248 52.6873 42.0377C52.6552 43.3643 52.9516 44.6783 53.55 45.8627C54.2513 47.1239 55.2251 48.2127 56.4005 49.05C58.0501 50.1783 59.8402 51.086 61.7252 51.75C63.5625 52.4623 64.8 53.0248 65.4005 53.512C66.0002 54 66.3005 54.4873 66.3005 55.0125C66.3005 55.6875 65.8877 56.3252 65.288 56.5875C64.613 56.925 63.6005 57.1127 62.1752 57.1127C60.6755 57.1127 59.175 56.925 57.7498 56.5502C56.1133 56.1847 54.5443 55.5648 53.1 54.713C52.9875 54.6377 52.875 54.6005 52.7625 54.6757C52.65 54.7502 52.6127 54.9 52.6127 55.0125V61.5375C52.5755 61.8377 52.7625 62.1 53.0255 62.2498C54.2415 62.8179 55.5278 63.2215 56.8505 63.45C58.538 63.7875 60.2248 63.9373 61.9495 63.9373C64.6495 63.9373 66.9002 63.5252 68.7375 62.7377C70.425 62.0627 71.8875 60.9005 72.9373 59.4C73.9204 57.9249 74.4306 56.1852 74.3998 54.4127C74.4368 53.0738 74.1405 51.7466 73.5377 50.5505C72.8248 49.275 71.8123 48.2252 70.5748 47.4377C68.7644 46.3008 66.826 45.3818 64.8 44.6998C63.8952 44.3253 63.0069 43.9124 62.1373 43.4623C61.65 43.2 61.2 42.8625 60.8625 42.4498C60.6375 42.1495 60.4877 41.8127 60.4877 41.4752C60.4877 41.1377 60.6002 40.763 60.7873 40.4627C61.0502 40.088 61.4623 39.825 61.9495 39.7125C62.6625 39.5255 63.45 39.4123 64.1995 39.4495C65.6248 39.4495 67.012 39.6373 68.4 39.9375C69.6755 40.1998 70.875 40.6125 72 41.213C72.1498 41.2875 72.3375 41.2875 72.675 41.213C72.7336 41.1695 72.7811 41.1129 72.8138 41.0477C72.8464 40.9824 72.8631 40.9104 72.8627 40.8375V34.7252C72.8627 34.5748 72.8248 34.425 72.7875 34.2752C72.7123 34.1255 72.5625 33.975 72.4127 33.9377C71.3784 33.515 70.2947 33.2251 69.1875 33.075C67.6477 32.8508 66.0938 32.7387 64.5377 32.7382Z" fill="#31A8FF"/>
</svg>
