<svg width="90" height="90" viewBox="0 0 90 90" fill="none" xmlns="http://www.w3.org/2000/svg">
<path d="M45 53.0156C49.4269 53.0156 53.0156 49.4269 53.0156 45C53.0156 40.5731 49.4269 36.9844 45 36.9844C40.5731 36.9844 36.9844 40.5731 36.9844 45C36.9844 49.4269 40.5731 53.0156 45 53.0156Z" fill="#61DAFB"/>
<path d="M75.4453 31.7812C73.8984 31.2187 72.2813 30.6563 70.5938 30.1641C71.0156 28.4766 71.3672 26.7891 71.6484 25.1719C73.125 15.8906 71.5078 9.35156 67.0078 6.82031C65.6719 6.04687 64.1953 5.69531 62.5078 5.69531C57.5859 5.69531 51.3281 9.35156 45 15.4687C38.6719 9.35156 32.4141 5.69531 27.4922 5.69531C25.8047 5.69531 24.3281 6.04687 22.9922 6.82031C18.4922 9.42187 16.875 15.9609 18.3516 25.1719C18.6328 26.7891 18.9844 28.4766 19.4063 30.1641C17.7188 30.6563 16.1016 31.1484 14.5547 31.7812C5.76563 35.1562 0.984375 39.7969 0.984375 45C0.984375 50.2031 5.83594 54.8438 14.5547 58.2188C16.1016 58.7813 17.7188 59.3438 19.4063 59.8359C18.9844 61.5234 18.6328 63.2109 18.3516 64.8281C16.875 74.1094 18.4922 80.6484 22.9922 83.1797C24.3281 83.9531 25.8047 84.3047 27.4922 84.3047C32.4844 84.3047 38.7422 80.6484 45 74.5313C51.3281 80.6484 57.5859 84.3047 62.5078 84.3047C64.1953 84.3047 65.6719 83.9531 67.0078 83.1797C71.5078 80.5781 73.125 74.0391 71.6484 64.8281C71.3672 63.2109 71.0156 61.5234 70.5938 59.8359C72.2813 59.3438 73.8984 58.8516 75.4453 58.2188C84.2344 54.8438 89.0156 50.2031 89.0156 45C89.0156 39.7969 84.2344 35.1562 75.4453 31.7812ZM65.0391 10.3359C67.9219 12.0234 68.9063 17.2266 67.7109 24.6094C67.5 26.0859 67.1484 27.6328 66.7266 29.25C63.0703 28.4062 59.2031 27.8437 55.125 27.4922C52.7344 24.1172 50.2734 21.0938 47.8125 18.3516C53.0156 13.2187 58.2891 9.70312 62.5781 9.70312C63.4922 9.70312 64.3359 9.91406 65.0391 10.3359ZM57.1641 52.0313C55.8984 54.2813 54.4219 56.5312 52.875 58.7812C50.2734 58.9922 47.6719 59.0625 45 59.0625C42.2578 59.0625 39.6562 58.9922 37.125 58.7812C35.5781 56.5312 34.1719 54.2813 32.9062 52.0313C31.5703 49.7109 30.3047 47.3203 29.1797 45C30.3047 42.6797 31.5703 40.2891 32.9062 37.9688C34.1719 35.7188 35.6484 33.4688 37.1953 31.2188C39.7969 31.0078 42.3984 30.9375 45.0703 30.9375C47.8125 30.9375 50.4141 31.0078 52.9453 31.2188C54.4922 33.4688 55.8984 35.7188 57.1641 37.9688C58.5 40.2891 59.7656 42.6797 60.8906 45C59.6953 47.3203 58.5 49.6406 57.1641 52.0313ZM63 49.7109C64.0547 52.1719 64.8984 54.5625 65.6719 56.9531C63.2812 57.5156 60.75 57.9375 58.0781 58.2891C58.9219 56.9531 59.8359 55.5469 60.6094 54.0703C61.4531 52.5938 62.2266 51.1172 63 49.7109ZM45 68.7656C43.3125 66.9375 41.6953 64.9688 40.1484 62.9297C41.7656 63 43.3828 63.0703 45 63.0703C46.6172 63.0703 48.2344 63 49.8516 62.9297C48.3047 64.9688 46.6875 66.9375 45 68.7656ZM31.9219 58.2188C29.25 57.8672 26.7187 57.4453 24.3281 56.8828C25.1016 54.5625 25.9453 52.1016 27 49.6406C27.7734 51.0469 28.5469 52.5234 29.3906 53.9297C30.2344 55.4766 31.0781 56.8125 31.9219 58.2188ZM27 40.2891C25.9453 37.8281 25.1016 35.4375 24.3281 33.0469C26.7187 32.4844 29.25 32.0625 31.9219 31.7109C31.0781 33.0469 30.1641 34.4531 29.3906 35.9297C28.5469 37.4062 27.7734 38.8828 27 40.2891ZM45 21.2344C46.6875 23.0625 48.3047 25.0312 49.8516 27.0703C48.2344 27 46.6172 26.9297 45 26.9297C43.3828 26.9297 41.7656 27 40.1484 27.0703C41.6953 25.0312 43.3125 23.0625 45 21.2344ZM60.6094 36L58.0781 31.7812C60.75 32.1328 63.2812 32.5547 65.6719 33.1172C64.8984 35.4375 64.0547 37.8984 63 40.3594C62.2266 38.8828 61.4531 37.4062 60.6094 36ZM22.2891 24.6094C21.0938 17.2266 22.0781 12.0234 24.9609 10.3359C25.6641 9.91406 26.5078 9.70312 27.4219 9.70312C31.6406 9.70312 36.9141 13.1484 42.1875 18.3516C39.7266 21.0234 37.2656 24.1172 34.875 27.4922C30.7969 27.8437 26.9297 28.4766 23.2734 29.25C22.8516 27.6328 22.5703 26.0859 22.2891 24.6094ZM4.92187 45C4.92187 41.6953 8.92969 38.1797 15.9609 35.5781C17.3672 35.0156 18.9141 34.5234 20.4609 34.1016C21.5859 37.6172 22.9922 41.3437 24.6797 45.0703C22.9922 48.7969 21.5156 52.4531 20.4609 55.9688C10.7578 53.1562 4.92187 48.9375 4.92187 45ZM24.9609 79.6641C22.0781 77.9766 21.0938 72.7734 22.2891 65.3906C22.5 63.9141 22.8516 62.3672 23.2734 60.75C26.9297 61.5938 30.7969 62.1563 34.875 62.5078C37.2656 65.8828 39.7266 68.9063 42.1875 71.6484C36.9844 76.7813 31.7109 80.2969 27.4219 80.2969C26.5078 80.2969 25.6641 80.0859 24.9609 79.6641ZM67.7109 65.3906C68.9063 72.7734 67.9219 77.9766 65.0391 79.6641C64.3359 80.0859 63.4922 80.2969 62.5781 80.2969C58.3594 80.2969 53.0859 76.8516 47.8125 71.6484C50.2734 68.9766 52.7344 65.8828 55.125 62.5078C59.2031 62.1563 63.0703 61.5234 66.7266 60.75C67.1484 62.3672 67.4297 63.9141 67.7109 65.3906ZM74.0391 54.4219C72.6328 54.9844 71.0859 55.4766 69.5391 55.8984C68.4141 52.3828 67.0078 48.6563 65.3203 44.9297C67.0078 41.2031 68.4844 37.5469 69.5391 34.0313C79.2422 36.8438 85.0781 41.0625 85.0781 45C85.0781 48.3047 81 51.8203 74.0391 54.4219Z" fill="#61DAFB"/>
</svg>
