<svg width="17" height="17" viewBox="0 0 17 17" fill="none" xmlns="http://www.w3.org/2000/svg">
<path d="M3.18751 8.5C3.18751 7.385 3.53834 6.29826 4.19029 5.39373C4.84224 4.48919 5.76227 3.81271 6.82006 3.46012C7.87784 3.10753 9.01975 3.09669 10.084 3.42915C11.1483 3.7616 12.081 4.4205 12.75 5.3125H10.625C10.4841 5.3125 10.349 5.36847 10.2494 5.4681C10.1497 5.56773 10.0938 5.70285 10.0938 5.84375C10.0938 5.98465 10.1497 6.11977 10.2494 6.2194C10.349 6.31903 10.4841 6.375 10.625 6.375H13.8125C13.9534 6.375 14.0885 6.31903 14.1882 6.2194C14.2878 6.11977 14.3438 5.98465 14.3438 5.84375V2.65625C14.3438 2.51535 14.2878 2.38023 14.1882 2.2806C14.0885 2.18097 13.9534 2.125 13.8125 2.125C13.6716 2.125 13.5365 2.18097 13.4369 2.2806C13.3372 2.38023 13.2813 2.51535 13.2813 2.65625V4.28294C12.3106 3.18273 10.9902 2.45099 9.54279 2.21116C8.09536 1.97134 6.60951 2.23811 5.3359 2.96648C4.0623 3.69484 3.07891 4.84022 2.55164 6.20936C2.02437 7.57851 1.98549 9.08762 2.44156 10.4821C2.89763 11.8766 3.82074 13.0711 5.05515 13.8641C6.28955 14.657 7.7597 15 9.21756 14.835C10.6754 14.67 12.0318 14.0072 13.0578 12.9585C14.0837 11.9097 14.7166 10.5391 14.8495 9.078C14.8609 8.9383 14.8166 8.79976 14.7263 8.69258C14.6359 8.5854 14.5069 8.51825 14.3673 8.50578C14.2277 8.4933 14.0888 8.53651 13.9809 8.62598C13.873 8.71545 13.8048 8.84393 13.7913 8.98344C13.669 10.3466 13.0254 11.6099 11.9946 12.5102C10.9637 13.4104 9.62524 13.8782 8.25806 13.8158C6.89087 13.7535 5.60049 13.1659 4.65586 12.1756C3.71123 11.1853 3.18524 9.8686 3.18751 8.5Z" fill="white"/>
</svg>
