<svg width="12" height="12" viewBox="0 0 12 12" fill="none" xmlns="http://www.w3.org/2000/svg">
<path fill-rule="evenodd" clip-rule="evenodd" d="M8.73276 5.3517C8.90387 5.52072 9 5.74993 9 5.98893C9 6.22792 8.90387 6.45713 8.73276 6.62615L3.56929 11.7248C3.48509 11.8109 3.38438 11.8796 3.27302 11.9268C3.16166 11.9741 3.04188 11.9989 2.92069 12C2.79949 12.001 2.6793 11.9782 2.56713 11.9329C2.45495 11.8876 2.35304 11.8206 2.26734 11.736C2.18164 11.6514 2.11386 11.5508 2.06797 11.44C2.02208 11.3292 1.99898 11.2105 2.00003 11.0909C2.00109 10.9712 2.02627 10.8529 2.0741 10.743C2.12194 10.633 2.19148 10.5335 2.27865 10.4504L6.7968 5.98893L2.27865 1.52746C2.11239 1.35747 2.02039 1.12979 2.02247 0.893475C2.02455 0.657155 2.12054 0.431096 2.28977 0.263987C2.459 0.0968769 2.68794 0.00208763 2.92726 3.40718e-05C3.16658 -0.00201948 3.39714 0.0888272 3.56929 0.253008L8.73276 5.3517Z" fill="#C8C8C8"/>
</svg>
