<svg width="17" height="17" viewBox="0 0 17 17" fill="none" xmlns="http://www.w3.org/2000/svg">
<path d="M13.2812 1.0625H3.71875C3.01453 1.06334 2.33939 1.34347 1.84143 1.84143C1.34347 2.33939 1.06334 3.01453 1.0625 3.71875V13.2812C1.0625 14.7454 2.25462 15.9375 3.71875 15.9375H13.2812C14.7454 15.9375 15.9375 14.7454 15.9375 13.2812V3.71875C15.9375 2.25462 14.7454 1.0625 13.2812 1.0625ZM2.125 13.2812V3.71875C2.125 2.84006 2.84006 2.125 3.71875 2.125H7.96875V14.875H3.71875C2.84006 14.875 2.125 14.1599 2.125 13.2812ZM14.875 13.2812C14.875 14.1599 14.1599 14.875 13.2812 14.875H9.03125V2.125H13.2812C14.1599 2.125 14.875 2.84006 14.875 3.71875V13.2812Z" fill="white"/>
</svg>
