<svg width="90" height="90" viewBox="0 0 90 90" fill="none" xmlns="http://www.w3.org/2000/svg">
<path fill-rule="evenodd" clip-rule="evenodd" d="M0 39.4382C0 39.9398 0.148382 40.2709 0.231534 40.5926C0.773452 42.6854 1.93829 44.4813 3.32032 46.1195C5.28872 48.4541 7.6994 50.3335 10.1689 52.1008C12.3107 53.6335 14.4963 55.1318 16.6468 56.653C17.0159 56.9142 17.365 57.2146 17.7657 57.5349C17.421 57.7204 17.1342 57.8838 16.836 58.0344C13.9981 59.4671 11.2677 61.0732 8.75098 63.019C7.23418 64.192 5.76756 65.4385 4.73175 67.0674C3.06514 69.6874 2.47519 72.4787 3.71744 75.459C4.08016 76.3295 4.63354 77.0815 5.41416 77.6374C5.6672 77.8172 5.95107 77.9955 6.24711 78.0655C7.00551 78.2431 7.77825 78.3594 8.54596 78.5L10.7201 78.4986C13.1243 78.2852 15.3128 77.4654 17.2905 76.1069C20.3814 73.9835 22.4638 71.1366 23.3591 67.4827C24.01 64.827 24.0365 62.1685 23.2695 59.5249C23.1958 59.2801 23.1111 59.0387 23.0158 58.8014C22.9226 58.5638 22.8129 58.3326 22.6839 58.0365L27.6127 55.2153L27.6866 55.2781C27.597 55.5699 27.5016 55.861 27.4206 56.1557C26.835 58.2848 26.4458 60.4511 26.5855 62.6608C26.7346 65.0154 27.3948 67.2194 28.7797 69.1866C29.8994 70.7777 32.5674 70.8369 33.7573 69.2401C34.1796 68.6728 34.5889 68.0799 34.8964 67.447C35.6999 65.7952 36.444 64.1142 37.2117 62.4446L37.3458 62.1392C37.2906 62.9298 37.2261 63.624 37.1967 64.319C37.1508 65.4042 37.2146 66.4831 37.5873 67.5155C37.9063 68.3988 38.449 69.0588 39.4654 69.1751C40.1607 69.2543 40.7148 68.9375 41.2259 68.5358C42.0175 67.9128 42.6737 67.1363 43.1549 66.2533C44.5176 63.7625 45.9168 61.2866 47.1519 58.7329C48.4881 55.9709 49.6565 53.1283 50.8973 50.3192L51.1023 49.8212C51.3955 50.9678 51.5998 52.0909 51.9761 53.154C52.4134 54.3876 52.9546 55.592 53.5438 56.7629C53.8227 57.3159 53.7904 57.6748 53.404 58.1386C51.7869 60.0793 50.1977 62.0436 48.6071 64.0058C48.2551 64.4389 47.9046 64.8798 47.6114 65.3529C47.4335 65.6516 47.3166 65.9823 47.2673 66.3261C47.218 66.6426 47.2937 66.9658 47.4785 67.228C47.6633 67.4902 47.9429 67.6709 48.2587 67.7324C48.896 67.8687 49.5495 67.915 50.1998 67.8701C52.4198 67.7074 54.4355 66.9319 56.2176 65.6176C58.5264 63.9151 59.2676 61.592 58.7085 58.8385C58.5573 58.0915 58.2899 57.3651 58.0297 56.6452C57.9128 56.3205 57.905 56.0929 58.1179 55.7904C59.9637 53.1668 61.5407 50.3834 63.0073 47.5358C63.0654 47.4238 63.1249 47.3118 63.2267 47.1919C63.7019 49.6535 64.4173 52.0259 65.699 54.1786C65.0452 54.8058 64.3979 55.3744 63.8123 56.0009C62.5227 57.3808 61.4045 58.8792 60.821 60.7065C60.5701 61.4942 60.3773 62.2948 60.4891 63.136C60.6626 64.4424 61.7378 65.2915 63.0288 64.994C65.7915 64.3575 68.1763 63.0618 69.9189 60.7664C71.0916 59.221 71.1984 57.4971 70.7074 55.6912C70.5727 55.2003 70.4128 54.7173 70.2408 54.1543C70.9225 53.9438 71.587 53.6913 72.2744 53.535C75.8435 52.7245 79.3738 52.8657 82.8131 54.1486C84.821 54.8978 86.4431 56.1514 87.4051 58.1236C88.58 60.5345 87.9305 62.822 85.6474 64.3461C85.4346 64.4881 85.1908 64.6001 85.0145 64.7778C84.958 64.843 84.9158 64.9191 84.8905 65.0014C84.8652 65.0837 84.8574 65.1704 84.8675 65.2558C84.8826 65.3436 85.1156 65.4535 85.2496 65.452C86.0001 65.4463 86.6087 65.0546 87.1929 64.6522C88.6567 63.644 89.7247 62.2876 89.9548 60.5017L90 60.3676L89.9448 59.2046C89.9226 59.1375 89.9613 59.0711 89.9563 59.0205C89.6452 56.4197 88.2495 54.4026 86.2195 52.8215C83.8683 50.9913 81.092 50.2379 78.1559 50.1187C75.7746 50.0167 73.3964 50.3811 71.1562 51.1911C70.5132 51.423 69.8759 51.6977 69.2293 51.9567C69.1426 51.8005 69.0494 51.6506 68.9727 51.4958C68.3089 50.143 67.5047 48.8501 67.3269 47.2989C67.2007 46.1973 67.0459 45.097 67.309 44.0075C67.562 42.9594 67.8917 41.9291 68.2021 40.8952C68.362 40.3629 68.2494 40.0647 67.7391 39.8249C67.5607 39.7379 67.3711 39.676 67.1756 39.6408C65.9212 39.4596 64.684 39.5631 63.4689 39.9148C63.0389 40.0397 62.7263 40.2794 62.631 40.7532C62.5765 41.025 62.4654 41.2855 62.388 41.5537C62.0704 42.669 61.8453 43.8056 61.3321 44.868C60.0461 47.533 58.5781 50.0973 57.0756 52.6431C56.9129 52.9178 56.7416 53.1875 56.5365 53.5207C56.009 52.4219 55.4463 51.4359 55.2757 50.28C55.0828 48.9728 54.9309 47.6678 55.2577 46.3707C55.5007 45.4031 55.8183 44.4535 56.1108 43.4988C56.2491 43.045 56.1853 42.8067 55.7724 42.5676C55.5638 42.4471 55.328 42.34 55.0929 42.3051C53.8066 42.11 52.4923 42.217 51.255 42.6176C50.8658 42.7432 50.6615 42.9936 50.5425 43.3932C50.1927 44.5719 49.8945 45.7792 49.4034 46.9001C47.415 51.438 45.3692 55.9524 43.3255 60.466C42.899 61.4086 42.3994 62.3183 41.9184 63.2359C41.7965 63.4685 41.6187 63.6733 41.4668 63.8916C41.3449 63.7482 41.2976 63.6497 41.2983 63.5513C41.3019 62.9712 41.2324 62.374 41.3435 61.8131C41.6846 60.117 42.0618 58.4282 42.4746 56.7479C42.8115 55.3594 43.2036 53.9838 43.5771 52.6046C43.7026 52.1429 43.7047 51.7113 43.3714 51.3231C42.8115 50.6731 41.6417 50.5304 40.9478 51.0313L40.641 51.204L40.7005 50.7116C40.8467 49.6564 40.8761 48.6046 40.5851 47.5651C40.2224 46.2693 39.2934 45.5237 37.9429 45.5651C37.3135 45.5844 36.6526 45.6914 36.0698 45.9197C33.619 46.8758 31.7345 48.569 30.1302 50.606C29.9814 50.7951 29.7971 50.9536 29.5876 51.0727C27.5138 52.2171 25.4336 53.3473 23.3541 54.4818L21.0395 55.744C20.4187 55.1547 19.8546 54.5432 19.2144 54.0245C17.2597 52.4376 15.2733 50.89 13.305 49.321C11.5602 47.9304 9.86994 46.482 8.57679 44.6404C7.61481 43.2704 6.99476 41.7714 6.93526 40.0775C6.86 37.9191 7.47503 35.947 8.57894 34.1111C9.99108 31.7623 11.9172 29.8772 14.0347 28.1697C16.2748 26.3645 18.6976 24.8319 21.2086 23.4327C24.7218 21.4756 28.3353 19.7432 32.2097 18.5994C36.1824 17.4264 40.2131 16.755 44.3706 17.2231C46.005 17.4071 47.592 17.7796 49.0493 18.5752C50.1654 19.1838 51.0808 19.9808 51.5066 21.2266C51.9267 22.4524 51.9138 23.6946 51.6227 24.9397C51.0313 27.4612 49.6443 29.5397 47.8988 31.3969C45.0358 34.4415 41.5435 36.5142 37.6117 37.8835C35.351 38.6716 32.999 39.171 30.6119 39.3697C28.6557 39.5331 26.7404 39.3604 24.8881 38.6833C23.6616 38.2345 22.5935 37.5481 21.7348 36.552C21.5814 36.3737 21.385 36.1803 21.099 36.3473C20.8187 36.5114 20.7692 36.7768 20.8631 37.0458C21.0201 37.4924 21.1649 37.9577 21.4094 38.3572C22.0237 39.3597 22.9197 40.0868 23.906 40.7104C25.8006 41.9098 27.9181 42.3129 30.1137 42.4064C33.4455 42.5498 36.6963 42.0546 39.9012 41.1649C44.4767 39.8948 48.4551 37.6516 51.6457 34.1126C54.3022 31.1658 56.1996 27.8401 56.6061 23.8245C56.8046 21.8644 56.5932 19.9444 55.6713 18.1563C54.6714 16.2192 53.0815 14.7786 51.1804 13.7861C48.4121 12.3412 45.4244 11.5 42.3406 11.5H39.2511C35.5164 11.5 31.9058 12.5653 28.3962 13.836C25.7397 14.7986 23.1347 15.9345 20.6058 17.1917C15.0984 19.9308 9.96957 23.2337 5.75681 27.7752C3.65795 30.0377 1.88094 32.5343 0.858754 35.4739C0.550767 36.3518 0.285002 37.2437 0.0623636 38.1467M20.018 63.8424C19.7793 67.0239 18.3306 69.6032 15.9629 71.6924C14.6311 72.8668 13.1035 73.7031 11.3244 73.997C10.6792 74.1034 10.019 74.129 9.39325 73.8629C8.5008 73.4833 8.30081 72.6949 8.28361 71.8551C8.25708 70.5165 8.72804 69.3064 9.37389 68.1548C10.2169 66.6536 11.4527 65.5091 12.7724 64.4403C14.8511 62.7557 17.1063 61.3301 19.4159 59.9844L19.5901 59.9131C19.947 61.2259 20.1169 62.5224 20.018 63.8424ZM38.0518 50.0153C37.8834 51.0313 37.6726 52.048 37.3744 53.0327C36.3436 56.4411 35.0197 59.744 33.5882 63.0026C33.3237 63.6055 32.9387 64.1556 32.604 64.7271C32.547 64.8149 32.4788 64.895 32.4011 64.9654C31.9868 65.3728 31.594 65.3514 31.3847 64.8184C31.1409 64.1991 30.9911 63.5363 30.8621 62.8806C30.7754 62.4403 30.7962 61.978 30.7689 61.527C30.7969 58.3205 31.7796 55.4065 33.447 52.6938C34.1344 51.575 34.8828 50.509 36.0261 49.8012C36.3819 49.5813 36.7667 49.4118 37.1694 49.2975C37.7787 49.1269 38.1529 49.4074 38.0518 50.0153ZM50.3554 65.6183L54.7775 60.4789C54.9617 62.3875 51.7023 66.1977 50.3554 65.6183ZM64.4789 62.1599C64.1664 62.3383 63.8259 62.4667 63.5055 62.6315C63.2123 62.7828 63.1155 62.6301 63.1069 62.379C63.1028 62.2051 63.1253 62.0316 63.1736 61.8645C63.7707 59.7682 64.8696 57.9787 66.5047 56.5232L66.6194 56.4647C67.3971 58.6302 66.4982 61.0083 64.4789 62.1599Z" fill="#CB6699"/>
</svg>
