<svg width="90" height="90" viewBox="0 0 90 90" fill="none" xmlns="http://www.w3.org/2000/svg">
<path d="M45 18C32.9998 18 25.5023 23.998 22.5 35.9988C26.9986 30.0002 32.2502 27.7507 38.2486 29.2506C41.6735 30.1042 44.1211 32.5878 46.8316 35.34C51.243 39.817 56.3491 45 67.5 45C79.4995 45 86.9977 39.0013 90 26.9977C85.5 32.9994 80.2502 35.25 74.2507 33.7494C70.8265 32.8951 68.3817 30.4122 65.6677 27.66C61.2591 23.183 56.1544 18 45 18ZM22.5 45C10.5005 45 3.00234 50.9987 0 63.0023C4.49953 57.0006 9.74906 54.75 15.7486 56.2506C19.1735 57.1049 21.6211 59.5878 24.3316 62.34C28.743 66.817 33.8491 72 45 72C56.9995 72 64.4977 66.002 67.5 54.0012C63 60.0001 57.7502 62.2495 51.7507 60.7494C48.3265 59.8958 45.8817 57.4122 43.1677 54.66C38.7591 50.183 33.6544 45 22.5 45Z" fill="#38BDF8"/>
</svg>
