<svg width="30" height="30" viewBox="0 0 30 30" fill="none" xmlns="http://www.w3.org/2000/svg">
<g clip-path="url(#clip0_116_494)">
<path d="M16.6847 14.2198H27.2479C27.9876 14.2198 28.697 13.9261 29.2202 13.4032C29.7433 12.8803 30.0375 12.1711 30.0379 11.4314C30.0379 10.6914 29.7439 9.98178 29.2207 9.45856C28.6975 8.93533 27.9878 8.64139 27.2479 8.64139H16.6847C15.9448 8.64139 15.2351 8.93533 14.7119 9.45856C14.1887 9.98178 13.8947 10.6914 13.8947 11.4314C13.8952 12.1711 14.1893 12.8803 14.7125 13.4032C15.2356 13.9261 15.9451 14.2198 16.6847 14.2198ZM2.79 21.3251H14.9321C15.6718 21.3251 16.3812 21.0313 16.9044 20.5085C17.4276 19.9856 17.7217 19.2763 17.7221 18.5367C17.7221 17.7967 17.4282 17.087 16.9049 16.5638C16.3817 16.0406 15.6721 15.7466 14.9321 15.7466H2.79C2.05005 15.7466 1.3404 16.0406 0.817172 16.5638C0.293946 17.087 0 17.7967 0 18.5367C0.000418608 19.2763 0.294549 19.9856 0.81773 20.5085C1.34091 21.0313 2.05032 21.3251 2.79 21.3251ZM1.64368 14.1188H2.87526V9.61875H4.47V8.52612H0.0489474V9.6156H1.64368V14.1188ZM6.08053 14.1188H7.31211V9.82875H7.32789L8.74895 14.1156H9.69632L11.1647 9.82875H11.1805V14.1156H12.4121V8.52612H10.5411L9.24632 12.1735H9.23053L7.94368 8.52612H6.08053V14.1188ZM24.0679 17.3161C23.9032 16.9727 23.6584 16.6738 23.3542 16.4445C23.0386 16.2137 22.68 16.0484 22.2995 15.9582C21.8827 15.8541 21.4548 15.8011 21.0253 15.8003H19.1779V21.3898H21.1911C21.5955 21.3918 21.9977 21.3305 22.3832 21.2082C22.7471 21.0975 23.0871 20.9197 23.3858 20.684C23.6763 20.4482 23.9118 20.1519 24.0758 19.8156C24.2531 19.442 24.3412 19.0323 24.3332 18.6188C24.346 18.1699 24.2553 17.7242 24.0679 17.3161ZM22.8947 19.3577C22.8024 19.5684 22.6591 19.7529 22.4779 19.8945C22.2895 20.033 22.0745 20.1309 21.8463 20.1819C21.5874 20.2416 21.3225 20.2707 21.0568 20.2688H20.4174V16.953H21.1437C21.3929 16.9517 21.6411 16.9852 21.8811 17.0524C22.1018 17.112 22.3096 17.2121 22.4937 17.3477C22.6625 17.4805 22.7995 17.6494 22.8947 17.8419C23.0032 18.0639 23.0573 18.3085 23.0526 18.5556C23.0596 18.8313 23.0056 19.1052 22.8947 19.3577ZM29.9416 19.3372C29.8858 19.1845 29.8011 19.0441 29.6921 18.9235C29.5837 18.8036 29.4541 18.7046 29.31 18.6314C29.1528 18.552 28.9838 18.4987 28.8095 18.4735V18.4577C29.0803 18.3799 29.3227 18.2253 29.5074 18.0124C29.6894 17.7906 29.7837 17.5097 29.7726 17.223C29.7845 16.9658 29.7214 16.7108 29.5911 16.4888C29.4721 16.3078 29.3091 16.16 29.1174 16.0593C28.9111 15.9528 28.6877 15.8833 28.4574 15.854C28.2157 15.8195 27.972 15.8021 27.7279 15.8019H25.6437V21.3914H27.9332C28.1837 21.3915 28.4335 21.3651 28.6784 21.3124C28.9169 21.2647 29.1454 21.1766 29.3542 21.0519C29.5518 20.934 29.7194 20.7719 29.8437 20.5782C29.9768 20.3554 30.0426 20.0987 30.0332 19.8393C30.0334 19.6682 30.004 19.4983 29.9463 19.3372H29.9416ZM26.8753 16.8503H27.7121C27.8101 16.8507 27.9079 16.8602 28.0042 16.8788C28.0976 16.8955 28.188 16.9259 28.2726 16.9688C28.3507 17.0113 28.4169 17.0726 28.4653 17.1472C28.5186 17.2333 28.545 17.3333 28.5411 17.4345C28.5434 17.5336 28.52 17.6315 28.4732 17.7188C28.4306 17.7954 28.3699 17.8605 28.2963 17.9082C28.2198 17.9567 28.1353 17.9915 28.0468 18.0109C27.9553 18.0324 27.8614 18.043 27.7674 18.0424H26.8753V16.8503ZM28.7258 20.0082C28.6783 20.0906 28.6124 20.1609 28.5332 20.2135C28.4529 20.2675 28.3627 20.305 28.2679 20.324C28.1736 20.3453 28.0772 20.3559 27.9805 20.3556H26.8753V19.0924H27.8068C27.9125 19.0934 28.018 19.1014 28.1226 19.1161C28.2337 19.1314 28.3425 19.1606 28.4463 19.203C28.5431 19.2435 28.6283 19.3075 28.6942 19.3893C28.7629 19.4799 28.7981 19.5915 28.7937 19.7051C28.7987 19.8104 28.7753 19.9151 28.7258 20.0082Z" fill="url(#paint0_linear_116_494)"/>
</g>
<defs>
<linearGradient id="paint0_linear_116_494" x1="0" y1="14.9619" x2="30.0379" y2="14.9619" gradientUnits="userSpaceOnUse">
<stop stop-color="#90CEA1"/>
<stop offset="0.56" stop-color="#3CBEC9"/>
<stop offset="1" stop-color="#00B3E5"/>
</linearGradient>
<clipPath id="clip0_116_494">
<rect width="30" height="30" fill="white"/>
</clipPath>
</defs>
</svg>
