<svg width="17" height="17" viewBox="0 0 17 17" fill="none" xmlns="http://www.w3.org/2000/svg">
<path d="M13.2812 1.0625H3.71875C3.0145 1.06325 2.33931 1.34334 1.84133 1.84133C1.34334 2.33931 1.06325 3.0145 1.0625 3.71875V13.2812C1.06306 13.9856 1.3431 14.6609 1.84112 15.1589C2.33914 15.6569 3.01444 15.9369 3.71875 15.9375H13.2812C13.9856 15.9369 14.6609 15.6569 15.1589 15.1589C15.6569 14.6609 15.9369 13.9856 15.9375 13.2812V3.71875C15.9367 3.0145 15.6567 2.33931 15.1587 1.84133C14.6607 1.34334 13.9855 1.06325 13.2812 1.0625ZM14.875 13.2812C14.875 14.1596 14.1596 14.875 13.2812 14.875H3.71875C2.84042 14.875 2.125 14.1596 2.125 13.2812V3.71875C2.125 2.84042 2.84042 2.125 3.71875 2.125H13.2812C14.1596 2.125 14.875 2.84042 14.875 3.71875V13.2812ZM7.28237 9.40737L4.09488 12.5949C3.99493 12.6943 3.85971 12.7501 3.71875 12.7501C3.57779 12.7501 3.44257 12.6943 3.34262 12.5949C3.24314 12.4953 3.18726 12.3602 3.18726 12.2195C3.18726 12.0787 3.24314 11.9437 3.34262 11.844L6.154 9.03196L3.34262 6.22129C3.24581 6.12114 3.19219 5.98697 3.19334 5.84768C3.19448 5.70839 3.25029 5.57511 3.34874 5.47657C3.44719 5.37803 3.58041 5.32209 3.71971 5.32082C3.859 5.31954 3.99322 5.37302 4.09346 5.46975L7.28096 8.65725C7.38044 8.75686 7.43632 8.89188 7.43632 9.03267C7.43632 9.17345 7.38044 9.30847 7.28096 9.40808L7.28237 9.40737ZM13.8125 12.2187C13.8125 12.3596 13.7565 12.4948 13.6569 12.5944C13.5573 12.694 13.4221 12.75 13.2812 12.75H7.96875C7.82785 12.75 7.69273 12.694 7.5931 12.5944C7.49347 12.4948 7.4375 12.3596 7.4375 12.2187C7.4375 12.0779 7.49347 11.9427 7.5931 11.8431C7.69273 11.7435 7.82785 11.6875 7.96875 11.6875H13.2812C13.4221 11.6875 13.5573 11.7435 13.6569 11.8431C13.7565 11.9427 13.8125 12.0779 13.8125 12.2187Z" fill="white"/>
</svg>
