<svg width="17" height="17" viewBox="0 0 17 17" fill="none" xmlns="http://www.w3.org/2000/svg">
<path fill-rule="evenodd" clip-rule="evenodd" d="M16.7328 7.3517C16.9039 7.52072 17 7.74993 17 7.98893C17 8.22792 16.9039 8.45713 16.7328 8.62615L11.5693 13.7248C11.4851 13.8109 11.3844 13.8796 11.273 13.9268C11.1617 13.9741 11.0419 13.9989 10.9207 14C10.7995 14.001 10.6793 13.9782 10.5671 13.9329C10.455 13.8876 10.353 13.8206 10.2673 13.736C10.1816 13.6514 10.1139 13.5508 10.068 13.44C10.0221 13.3292 9.99898 13.2105 10 13.0909C10.0011 12.9712 10.0263 12.8529 10.0741 12.743C10.1219 12.633 10.1915 12.5335 10.2787 12.4504L14.7968 7.98893L10.2787 3.52746C10.1124 3.35747 10.0204 3.12979 10.0225 2.89347C10.0245 2.65716 10.1205 2.4311 10.2898 2.26399C10.459 2.09688 10.6879 2.00209 10.9273 2.00003C11.1666 1.99798 11.3971 2.08883 11.5693 2.25301L16.7328 7.3517Z" fill="#E36B24"/>
<path fill-rule="evenodd" clip-rule="evenodd" d="M0.267244 8.6483C0.0961289 8.47928 5.02675e-07 8.25007 5.23568e-07 8.01107C5.44462e-07 7.77208 0.096129 7.54287 0.267244 7.37385L5.43071 2.27516C5.51491 2.18907 5.61563 2.12041 5.72699 2.07317C5.83835 2.02594 5.95812 2.00107 6.07931 2.00003C6.20051 1.99899 6.3207 2.0218 6.43287 2.06712C6.54505 2.11243 6.64696 2.17936 6.73266 2.26399C6.81836 2.34861 6.88614 2.44924 6.93203 2.56001C6.97793 2.67078 7.00102 2.78946 6.99997 2.90914C6.99891 3.02881 6.97373 3.14708 6.9259 3.25705C6.87806 3.36701 6.80852 3.46646 6.72135 3.5496L2.2032 8.01107L6.72135 12.4725C6.88761 12.6425 6.97961 12.8702 6.97753 13.1065C6.97545 13.3428 6.87946 13.5689 6.71023 13.736C6.541 13.9031 6.31206 13.9979 6.07274 14C5.83342 14.002 5.60286 13.9112 5.43071 13.747L0.267244 8.6483Z" fill="#E36B24"/>
</svg>
