<svg width="17" height="17" viewBox="0 0 17 17" fill="none" xmlns="http://www.w3.org/2000/svg">
<path d="M9.25115 8.49978L13.125 4.6259C13.2218 4.52571 13.2753 4.39151 13.2741 4.25222C13.2729 4.11293 13.2171 3.97968 13.1186 3.88119C13.0201 3.78269 12.8868 3.72682 12.7475 3.72561C12.6082 3.7244 12.474 3.77794 12.3738 3.87471L8.49997 7.74859L4.62609 3.87471C4.5259 3.77794 4.3917 3.7244 4.25241 3.72561C4.11312 3.72682 3.97987 3.78269 3.88137 3.88119C3.78288 3.97968 3.72701 4.11293 3.7258 4.25222C3.72458 4.39151 3.77813 4.52571 3.8749 4.6259L7.74878 8.49978L3.8749 12.3737C3.77529 12.4734 3.71938 12.6086 3.71948 12.7496C3.71958 12.8906 3.77568 13.0258 3.87543 13.1254C3.97519 13.225 4.11043 13.2809 4.2514 13.2808C4.39238 13.2807 4.52754 13.2246 4.62715 13.1248L8.50103 9.25096L12.3749 13.1248C12.4243 13.1743 12.4829 13.2136 12.5474 13.2403C12.612 13.2671 12.6812 13.2809 12.751 13.2809C12.8209 13.2809 12.8901 13.2671 12.9546 13.2403C13.0192 13.2136 13.0778 13.1743 13.1272 13.1248C13.2267 13.0252 13.2827 12.8901 13.2827 12.7492C13.2827 12.6084 13.2267 12.4733 13.1272 12.3737L9.25328 8.49978H9.25115Z" fill="white"/>
</svg>
